{
  "accessors": [
    {
      "bufferView": 2,
      "componentType": 5126,
      "count": 4,
      "max": [
        -0.24467000365257263,
        1.9457659721374512,
        7.3460640907287598
      ],
      "min": [
        -0.63380897045135498,
        1.7161370515823364,
        7.0611300468444824
      ],
      "type": "VEC3"
    },
    {
      "bufferView": 2,
      "byteOffset": 48,
      "componentType": 5126,
      "count": 4,
      "max": [
        0.10252197831869125,
        0.87868690490722656,
        0.74318361282348633
      ],
      "min": [
        -0.038831017911434174,
        0.66776371002197266,
        0.47419193387031555
      ],
      "type": "VEC3"
    },
    {
      "bufferView": 1,
      "componentType": 5126,
      "count": 4,
      "max": [
        0.13935999572277069,
        0.81892400979995728
      ],
      "min": [
        0.10459200292825699,
        0.78264898061752319
      ],
      "type": "VEC2"
    },
    {
      "bufferView": 0,
      "componentType": 5125,
      "count": 6,
      "max": [
        3
      ],
      "min": [
        0
      ],
      "type": "SCALAR"
    },
    {
      "bufferView": 2,
      "byteOffset": 96,
      "componentType": 5126,
      "count": 320,
      "max": [
        1.8530189990997314,
        2.2162129878997803,
        10.351561546325684
      ],
      "min": [
        -1.9454879760742188,
        -2.3789288997650146,
        -0.17418399453163147
      ],
      "type": "VEC3"
    },
    {
      "bufferView": 2,
      "byteOffset": 3936,
      "componentType": 5126,
      "count": 320,
      "max": [
        0.99605309963226318,
        0.99954861402511597,
        0.91424787044525146
      ],
      "min": [
        -0.98680347204208374,
        -0.9996035099029541,
        -0.99806588888168335
      ],
      "type": "VEC3"
    },
    {
      "bufferView": 1,
      "byteOffset": 32,
      "componentType": 5126,
      "count": 320,
      "max": [
        0,
        0
      ],
      "min": [
        0,
        0
      ],
      "type": "VEC2"
    },
    {
      "bufferView": 0,
      "byteOffset": 24,
      "componentType": 5125,
      "count": 3030,
      "max": [
        319
      ],
      "min": [
        0
      ],
      "type": "SCALAR"
    },
    {
      "bufferView": 2,
      "byteOffset": 7776,
      "componentType": 5126,
      "count": 909,
      "max": [
        1.1770319938659668,
        3.0421431064605713,
        10.55882453918457
      ],
      "min": [
        -3.1974830627441406,
        -1.4874969720840454,
        0.56138902902603149
      ],
      "type": "VEC3"
    },
    {
      "bufferView": 2,
      "byteOffset": 18684,
      "componentType": 5126,
      "count": 909,
      "max": [
        0.99831098318099976,
        0.99987262487411499,
        0.89115774631500244
      ],
      "min": [
        -0.99832773208618164,
        -0.99757033586502075,
        -0.85077667236328125
      ],
      "type": "VEC3"
    },
    {
      "bufferView": 1,
      "byteOffset": 2592,
      "componentType": 5126,
      "count": 909,
      "max": [
        0.99205702543258667,
        0.92706501483917236
      ],
      "min": [
        0.55222201347351074,
        0.088192999362945557
      ],
      "type": "VEC2"
    },
    {
      "bufferView": 0,
      "byteOffset": 12144,
      "componentType": 5125,
      "count": 4494,
      "max": [
        908
      ],
      "min": [
        0
      ],
      "type": "SCALAR"
    },
    {
      "bufferView": 2,
      "byteOffset": 29592,
      "componentType": 5126,
      "count": 12554,
      "max": [
        1.8959039449691772,
        2.2407450675964355,
        10.633744239807129
      ],
      "min": [
        -3.3092610836029053,
        -2.4204421043395996,
        -0.17418399453163147
      ],
      "type": "VEC3"
    },
    {
      "bufferView": 2,
      "byteOffset": 180240,
      "componentType": 5126,
      "count": 12554,
      "max": [
        0.99993789196014404,
        0.99974298477172852,
        0.99998438358306885
      ],
      "min": [
        -0.99993366003036499,
        -0.99974602460861206,
        -0.99998337030410767
      ],
      "type": "VEC3"
    },
    {
      "bufferView": 1,
      "byteOffset": 9864,
      "componentType": 5126,
      "count": 12554,
      "max": [
        0.54594802856445312,
        0.39443299174308777
      ],
      "min": [
        0.042794998735189438,
        0.024598000571131706
      ],
      "type": "VEC2"
    },
    {
      "bufferView": 0,
      "byteOffset": 30120,
      "componentType": 5125,
      "count": 17136,
      "max": [
        12553
      ],
      "min": [
        0
      ],
      "type": "SCALAR"
    },
    {
      "bufferView": 2,
      "byteOffset": 330888,
      "componentType": 5126,
      "count": 1729,
      "max": [
        3.608720064163208,
        4.543053150177002,
        11.989051818847656
      ],
      "min": [
        -3.2735381126403809,
        -3.7561259269714355,
        -0.17418399453163147
      ],
      "type": "VEC3"
    },
    {
      "bufferView": 2,
      "byteOffset": 351636,
      "componentType": 5126,
      "count": 1729,
      "max": [
        0.99605309963226318,
        0.99954861402511597,
        0.99997526407241821
      ],
      "min": [
        -0.99867445230484009,
        -0.9996035099029541,
        -0.99806588888168335
      ],
      "type": "VEC3"
    },
    {
      "bufferView": 1,
      "byteOffset": 110296,
      "componentType": 5126,
      "count": 1729,
      "max": [
        0.97018301486968994,
        0.98520302772521973
      ],
      "min": [
        0.025669999420642853,
        0.022637000307440758
      ],
      "type": "VEC2"
    },
    {
      "bufferView": 0,
      "byteOffset": 98664,
      "componentType": 5125,
      "count": 7662,
      "max": [
        1728
      ],
      "min": [
        0
      ],
      "type": "SCALAR"
    }
  ],
  "asset": {
    "extras": {
      "author": "jade_m (https://sketchfab.com/jade_m)",
      "license": "CC-BY-4.0 (http://creativecommons.org/licenses/by/4.0/)",
      "source": "https://sketchfab.com/3d-models/hibiscous-flower-b3cd2a88889c4ca3ab2a3de29e60de94",
      "title": "Hibiscous Flower"
    },
    "generator": "Sketchfab-8.47.0",
    "version": "2.0"
  },
  "bufferViews": [
    {
      "buffer": 0,
      "byteLength": 129312,
      "byteOffset": 0,
      "name": "floatBufferViews",
      "target": 34963
    },
    {
      "buffer": 0,
      "byteLength": 124128,
      "byteOffset": 129312,
      "byteStride": 8,
      "name": "floatBufferViews",
      "target": 34962
    },
    {
      "buffer": 0,
      "byteLength": 372384,
      "byteOffset": 253440,
      "byteStride": 12,
      "name": "floatBufferViews",
      "target": 34962
    }
  ],
  "buffers": [
    {
      "byteLength": 625824,
      "uri": "scene.bin"
    }
  ],
  "images": [
    {
      "uri": "textures/lambert2SG_baseColor.jpeg"
    },
    {
      "uri": "textures/lambert3SG_baseColor.jpeg"
    }
  ],
  "materials": [
    {
      "doubleSided": true,
      "name": "lambert2SG",
      "pbrMetallicRoughness": {
        "baseColorFactor": [
          1,
          1,
          1,
          1
        ],
        "baseColorTexture": {
          "index": 0,
          "texCoord": 0
        },
        "metallicFactor": 0,
        "roughnessFactor": 0.59999999999999998
      }
    },
    {
      "doubleSided": true,
      "name": "lambert3SG",
      "pbrMetallicRoughness": {
        "baseColorFactor": [
          1,
          1,
          1,
          1
        ],
        "baseColorTexture": {
          "index": 1,
          "texCoord": 0
        },
        "metallicFactor": 0,
        "roughnessFactor": 0.59999999999999998
      }
    }
  ],
  "meshes": [
    {
      "primitives": [
        {
          "attributes": {
            "NORMAL": 1,
            "POSITION": 0,
            "TEXCOORD_0": 2
          },
          "indices": 3,
          "material": 1,
          "mode": 4
        }
      ]
    },
    {
      "primitives": [
        {
          "attributes": {
            "NORMAL": 5,
            "POSITION": 4,
            "TEXCOORD_0": 6
          },
          "indices": 7,
          "material": 0,
          "mode": 4
        }
      ]
    },
    {
      "primitives": [
        {
          "attributes": {
            "NORMAL": 9,
            "POSITION": 8,
            "TEXCOORD_0": 10
          },
          "indices": 11,
          "material": 0,
          "mode": 4
        }
      ]
    },
    {
      "primitives": [
        {
          "attributes": {
            "NORMAL": 13,
            "POSITION": 12,
            "TEXCOORD_0": 14
          },
          "indices": 15,
          "material": 0,
          "mode": 4
        }
      ]
    },
    {
      "primitives": [
        {
          "attributes": {
            "NORMAL": 17,
            "POSITION": 16,
            "TEXCOORD_0": 18
          },
          "indices": 19,
          "material": 0,
          "mode": 4
        }
      ]
    }
  ],
  "nodes": [
    {
      "children": [
        1
      ],
      "name": "RootNode (gltf orientation matrix)",
      "rotation": [
        -0.70710678118654746,
        -0,
        -0,
        0.70710678118654757
      ]
    },
    {
      "children": [
        2
      ],
      "name": "RootNode (model correction matrix)"
    },
    {
      "children": [
        3,
        4,
        5,
        6,
        7
      ],
      "name": "hibiscous.obj.cleaner.materialmerger.gles"
    },
    {
      "mesh": 0,
      "name": ""
    },
    {
      "mesh": 1,
      "name": ""
    },
    {
      "mesh": 2,
      "name": ""
    },
    {
      "mesh": 3,
      "name": ""
    },
    {
      "mesh": 4,
      "name": ""
    }
  ],
  "samplers": [
    {
      "magFilter": 9729,
      "minFilter": 9987,
      "wrapS": 10497,
      "wrapT": 10497
    }
  ],
  "scene": 0,
  "scenes": [
    {
      "name": "OSG_Scene",
      "nodes": [
        0
      ]
    }
  ],
  "textures": [
    {
      "sampler": 0,
      "source": 0
    },
    {
      "sampler": 0,
      "source": 1
    }
  ]
}

